<svg width="140" height="25" viewBox="0 0 140 25" fill="none" xmlns="http://www.w3.org/2000/svg">
<path d="M12.1035 19.4724L12.1035 19.4725C10.6981 20.6194 8.8992 21.1906 6.71195 21.1906C5.5085 21.1906 4.58433 21.0145 3.94667 20.6553C3.89264 20.6286 3.83082 20.6146 3.75995 20.6146C3.74792 20.6146 3.72073 20.6184 3.67369 20.6294C3.62838 20.64 3.56918 20.6562 3.49576 20.678C3.34899 20.7216 3.14795 20.7873 2.89226 20.8752C2.37389 21.0534 1.84703 21.1426 1.31195 21.1426C1.0518 21.1426 0.846365 21.1043 0.704037 21.0198C0.556584 20.9323 0.481445 20.7976 0.481445 20.6241C0.481445 20.5097 0.515629 20.3564 0.579216 20.1676C0.643231 19.9776 0.738766 19.7468 0.865309 19.4756C1.11841 18.9333 1.49741 18.2255 2.00176 17.3529C3.01045 15.5917 3.91143 14.3986 4.70564 13.7827L4.70607 13.7824C5.04948 13.5207 5.39045 13.3856 5.72795 13.3856C5.89163 13.3856 6.02428 13.4077 6.11806 13.4593C6.1659 13.4856 6.20475 13.5202 6.2314 13.5642C6.25811 13.6083 6.27045 13.6583 6.27045 13.7121C6.27045 13.7288 6.26452 13.7452 6.26115 13.7541C6.25673 13.7658 6.2506 13.7795 6.24323 13.7947C6.22841 13.8254 6.2067 13.8662 6.17848 13.9166C6.12195 14.0175 6.03755 14.1602 5.92553 14.3442C5.72021 14.6918 5.50583 15.1598 5.28266 15.7495C5.07621 16.3373 4.97445 16.8417 4.97445 17.2641C4.97445 17.6757 5.01399 18.0212 5.09174 18.3018C5.18295 18.5741 5.3973 18.8604 5.74364 19.1598C6.09934 19.4377 6.52504 19.5776 7.02395 19.5776C7.5469 19.5776 8.02905 19.5142 8.47078 19.388L8.47132 19.3878C8.92929 19.2615 9.38001 19.0639 9.82351 18.7946C10.2608 18.5292 10.6216 18.1379 10.9051 17.6181C11.1874 17.1006 11.3294 16.5031 11.3294 15.8241C11.3294 15.1334 11.1177 14.4324 10.6904 13.7202C10.2607 13.0041 9.79193 12.4006 9.28446 11.909L9.28375 11.9083C8.76875 11.3933 8.29423 10.8141 7.86014 10.171L7.85974 10.1704L7.85975 10.1704C7.42297 9.50719 7.20145 8.8634 7.20145 8.24007C7.20145 7.60478 7.36451 7.01755 7.6905 6.47968L7.6912 6.47851L7.69122 6.47852C8.03159 5.94364 8.44585 5.5208 8.93428 5.21141C9.4351 4.88833 9.99986 4.62222 10.6282 4.41278C11.6884 4.05937 12.6313 3.88157 13.4559 3.88157C14.2717 3.88157 14.8766 3.9214 15.2673 4.00259C15.6668 4.06655 15.9662 4.13103 16.163 4.19655M12.1035 19.4724L16.1439 4.25607M12.1035 19.4724C13.5248 18.3096 14.2384 16.8683 14.2384 15.1521C14.2384 14.3725 14.0272 13.6102 13.6068 12.866C13.2047 12.1102 12.7534 11.4891 12.2522 11.0039C11.7748 10.5105 11.3291 9.97733 10.9152 9.40426C10.5201 8.81934 10.3264 8.27166 10.3264 7.76007C10.3264 7.23449 10.5264 6.78703 10.9299 6.4144C11.357 6.03481 11.7731 5.78455 12.178 5.65991C12.6049 5.53346 13.0148 5.47057 13.4079 5.47057C13.8103 5.47057 14.1984 5.59414 14.5733 5.84407L14.5733 5.8441L14.5748 5.84507C14.9408 6.0738 15.1214 6.3979 15.1214 6.82407C15.1214 7.6305 14.9477 8.34769 14.6016 8.97726C14.5455 9.07336 14.5029 9.15048 14.474 9.20812C14.4596 9.23693 14.4482 9.26186 14.4402 9.28242C14.4333 9.30025 14.4254 9.32311 14.4254 9.34407C14.4254 9.40464 14.4428 9.46001 14.4784 9.50757C14.5135 9.55436 14.5638 9.59017 14.6246 9.61718C14.7447 9.67057 14.9173 9.69457 15.1359 9.69457C15.283 9.69457 15.4426 9.64071 15.6131 9.54045C15.784 9.44001 15.9695 9.29083 16.1697 9.09471C16.57 8.70252 17.0347 8.11665 17.5636 7.33923M12.1035 19.4724L14.6559 9.00807C14.5439 9.20007 14.4879 9.31207 14.4879 9.34407C14.4879 9.53607 14.7039 9.63207 15.1359 9.63207C15.6639 9.63207 16.4559 8.85607 17.5119 7.30407M16.163 4.19655C16.1632 4.19662 16.1635 4.1967 16.1637 4.19678L16.1439 4.25607M16.163 4.19655C16.1628 4.19648 16.1626 4.19641 16.1623 4.19633L16.1439 4.25607M16.163 4.19655C16.2662 4.22829 16.3488 4.25186 16.4111 4.26744C16.4759 4.28364 16.5127 4.28957 16.5279 4.28957C16.5582 4.28957 16.6099 4.27321 16.6878 4.22648L16.6891 4.22568L16.6891 4.22569C17.1787 3.94829 17.7093 3.80957 18.2799 3.80957C18.563 3.80957 18.7844 3.84362 18.9373 3.91785C19.0145 3.95538 19.0765 4.00425 19.119 4.06621C19.1618 4.12865 19.1824 4.20076 19.1824 4.28007C19.1824 4.40293 19.1461 4.55804 19.0781 4.74266C19.0098 4.92824 18.9079 5.14796 18.7731 5.40141C18.5036 5.90832 18.1002 6.55445 17.5636 7.33923M16.1439 4.25607C16.3519 4.32007 16.4799 4.35207 16.5279 4.35207C16.5759 4.35207 16.6399 4.32807 16.7199 4.28007C17.1999 4.00807 17.7199 3.87207 18.2799 3.87207C18.8399 3.87207 19.1199 4.00807 19.1199 4.28007C19.1199 4.72807 18.5839 5.73607 17.5119 7.30407M17.5636 7.33923L17.5119 7.30407M17.5636 7.33923C17.5636 7.33927 17.5636 7.33931 17.5635 7.33934L17.5119 7.30407" fill="#007BFF" stroke="#007BFF" stroke-width="0.125"/>
<path d="M27.9666 24.452V24.4443L27.9648 24.4368L27.8931 24.1502C27.893 24.15 27.893 24.1498 27.8929 24.1496C27.7492 23.5106 27.6134 22.8797 27.4856 22.2567C27.422 21.8587 27.3662 21.4046 27.3184 20.8942C27.2705 20.3674 27.2466 19.9214 27.2466 19.556C27.2466 19.1897 27.2625 18.7832 27.2945 18.3364C27.301 18.2446 27.3565 18.1314 27.4769 17.9954C27.5964 17.8605 27.774 17.7097 28.012 17.5432L28.0131 17.5424C28.4914 17.1916 29.0098 16.8487 29.5683 16.5135C30.135 16.1735 30.6522 15.7207 31.1202 15.1558C31.5916 14.5869 31.8306 13.9892 31.8306 13.364C31.8306 12.9853 31.7296 12.6901 31.5169 12.4904C31.3049 12.2914 30.9928 12.1975 30.5921 12.1975C29.8119 12.1975 28.9305 12.433 27.9493 12.8995C26.9737 13.3633 26.2964 13.7416 25.9223 14.0342C25.5541 14.3063 25.2651 14.5311 25.0557 14.7082L25.0557 14.7082L25.0539 14.7099C24.865 14.883 24.712 14.9575 24.5921 14.9575C24.5071 14.9575 24.4544 14.9347 24.422 14.8996C24.3888 14.8635 24.3666 14.8035 24.3666 14.708C24.3666 14.6096 24.3948 14.4649 24.4553 14.2705C24.5154 14.0774 24.606 13.8395 24.7275 13.5566C24.9706 12.9909 25.3356 12.2487 25.8232 11.3294C26.8138 9.4921 27.9322 7.71861 29.1785 6.00898C29.8095 5.15432 30.3528 4.51587 30.8087 4.09171C31.0366 3.87963 31.2412 3.72251 31.4227 3.6187C31.6045 3.51463 31.7591 3.46646 31.8881 3.46646C32.0106 3.46646 32.0924 3.50363 32.1455 3.56928C32.2007 3.63746 32.2336 3.74677 32.2336 3.90796C32.2336 4.1819 32.1225 4.56571 31.8914 5.06365C31.6612 5.55991 31.3149 6.16315 30.8518 6.87383L30.8515 6.87425C29.9445 8.29047 28.7106 9.54071 27.1485 10.6246L27.1387 10.6314L27.1321 10.6413L26.9881 10.8573L26.9776 10.873V10.892C26.9776 10.9423 26.9897 10.9892 27.0158 11.0304C27.0418 11.0714 27.0794 11.1032 27.125 11.1273C27.2145 11.1743 27.3407 11.1945 27.4961 11.1945C27.9126 11.1945 28.4063 11.018 28.9744 10.6755C29.5434 10.3324 30.1929 9.81935 30.9226 9.13782C31.9515 8.18928 32.891 7.01657 33.7415 5.62047L33.7417 5.6202C34.5933 4.20608 35.0226 2.89891 35.0226 1.69996C35.0226 1.24473 34.9273 0.891671 34.726 0.651778C34.5229 0.409786 34.2209 0.293457 33.8321 0.293457C32.9453 0.293457 31.9308 0.801604 30.7912 1.79668C29.6512 2.77614 28.5602 3.97165 27.5179 5.38269C26.4763 6.77692 25.2352 8.65874 23.7947 11.0275L23.7946 11.0277C22.3695 13.3976 20.8486 16.2151 19.2321 19.4802L19.2321 19.4802L19.2315 19.4815C19.1147 19.7317 19.0576 20.0292 19.0576 20.372C19.0576 20.7228 19.1748 21.0631 19.4049 21.3918L19.4049 21.3918L19.4061 21.3935C19.5279 21.5559 19.6438 21.6807 19.754 21.7655C19.8638 21.85 19.973 21.8985 20.0801 21.8985C20.1836 21.8985 20.275 21.8791 20.3508 21.8364C20.4267 21.7937 20.4832 21.7298 20.5203 21.6475C21.2522 20.2798 22.495 18.7336 24.2519 17.0086L24.2081 16.964L24.2519 17.0086C25.1382 16.1382 25.9246 15.4876 26.6114 15.0548C27.2993 14.6215 27.8813 14.4105 28.3601 14.4105C28.4625 14.4105 28.5278 14.436 28.5679 14.4762C28.6081 14.5163 28.6336 14.5816 28.6336 14.684C28.6336 15.3422 28.2131 15.9819 27.34 16.601L27.3395 16.6013C26.4789 17.2228 25.7252 17.6428 25.0777 17.8642C24.9813 17.8908 24.903 17.9366 24.849 18.0053C24.7944 18.0747 24.7696 18.1613 24.7696 18.26C24.7696 19.4219 25.06 20.7815 25.6375 22.3377C25.9267 23.1168 26.2377 23.7064 26.5724 24.1023C26.9075 24.4988 27.2715 24.7065 27.6641 24.7065V24.7077L27.6764 24.7052C27.761 24.6883 27.8321 24.6616 27.8832 24.6208C27.9368 24.5778 27.9666 24.5204 27.9666 24.452Z" fill="#007BFF" stroke="#007BFF" stroke-width="0.125"/>
<path d="M36.4644 14.5954L36.4643 14.5955C35.9442 15.6118 35.5537 16.4027 35.2932 16.9678C35.163 17.2503 35.0648 17.4772 34.9991 17.6481C34.9663 17.7334 34.9412 17.8057 34.9243 17.8643C34.9078 17.9214 34.8975 17.9707 34.8975 18.008C34.8975 18.4235 35.0393 18.7754 35.3231 19.0596C35.5983 19.3507 35.8617 19.5105 36.112 19.5105C36.2047 19.5105 36.2794 19.4543 36.3375 19.3693C36.3948 19.2857 36.4425 19.1656 36.4829 19.0136C37.0738 17.7686 37.9519 16.1481 39.1179 14.1515C40.2845 12.1539 41.1699 10.7742 41.7748 10.0095C41.832 9.95108 41.8625 9.88042 41.8625 9.8C41.8625 9.71488 41.8241 9.64241 41.7566 9.58455C41.6915 9.52871 41.5988 9.48577 41.4838 9.45268C41.2707 9.37101 41.064 9.3295 40.864 9.3295C39.8516 9.3295 39.0783 9.48182 38.5521 9.79426L38.552 9.79419L38.5493 9.796C38.2544 9.99261 38.0901 10.2166 38.0895 10.4706C38.0736 10.8196 37.933 11.3371 37.6618 12.0271C37.3909 12.7164 36.9919 13.5723 36.4644 14.5954ZM40.2015 7.208H40.2014L40.2016 7.21157C40.2184 7.50555 40.3245 7.73434 40.5261 7.88774C40.7254 8.03934 41.0091 8.1105 41.368 8.1105C41.8619 8.1105 42.3457 7.95389 42.8182 7.64428L42.8182 7.6443L42.8194 7.64345C43.297 7.31412 43.5425 6.89635 43.5425 6.392H43.5426L43.5424 6.38844C43.5256 6.09445 43.4194 5.86567 43.2178 5.71226C43.0186 5.56066 42.7349 5.4895 42.376 5.4895C41.8977 5.4895 41.4143 5.64629 40.9265 5.9552L40.9265 5.95519L40.9257 5.95572C40.4473 6.26918 40.2015 6.67937 40.2015 7.184V7.208Z" fill="#007BFF" stroke="#007BFF" stroke-width="0.125"/>
<path d="M48.6584 10.0198L48.6583 10.0199C47.538 11.8925 46.6492 13.4698 45.9924 14.7515C45.3354 16.0333 44.7426 17.3552 44.2138 18.7171C43.6856 20.0615 43.4175 21.0631 43.4175 21.716C43.4175 22.3615 43.5062 22.9911 43.6837 23.6046C43.766 23.9168 43.9065 24.1746 44.1069 24.3753C44.31 24.5949 44.5582 24.7065 44.848 24.7065C44.9412 24.7065 45.0159 24.6656 45.0636 24.5861C45.1082 24.5117 45.1265 24.4082 45.1265 24.284C45.1265 22.6641 45.6589 20.569 46.7297 17.996C47.8164 15.423 49.071 12.9779 50.4932 10.6607C51.9326 8.34169 53.2918 6.28692 54.5708 4.49628L54.571 4.49607C55.8517 2.68711 56.7599 1.54082 57.2981 1.05014L57.2981 1.05019L57.3002 1.04815C57.4002 0.948095 57.4625 0.844898 57.4625 0.739958H57.4626L57.4624 0.736059C57.4529 0.584877 57.3751 0.47027 57.2374 0.39681C57.1041 0.325694 56.9159 0.293457 56.68 0.293457C56.204 0.293457 55.6747 0.432886 55.0933 0.707442C54.5093 0.983206 54.075 1.34219 53.7953 1.78635C52.035 4.50681 50.3227 7.25128 48.6584 10.0198Z" fill="#007BFF" stroke="#007BFF" stroke-width="0.125"/>
<path d="M62.5783 10.0198L62.5783 10.0199C61.4579 11.8925 60.5691 13.4698 59.9123 14.7515C59.2553 16.0333 58.6625 17.3552 58.1337 18.7171C57.6056 20.0615 57.3374 21.0631 57.3374 21.716C57.3374 22.3615 57.4261 22.9911 57.6037 23.6046C57.6859 23.9168 57.8265 24.1746 58.0268 24.3753C58.23 24.5949 58.4781 24.7065 58.7679 24.7065C58.8611 24.7065 58.9358 24.6656 58.9835 24.5861C59.0281 24.5117 59.0464 24.4082 59.0464 24.284C59.0464 22.6641 59.5788 20.569 60.6496 17.996C61.7364 15.423 62.9909 12.9779 64.4131 10.6607C65.8525 8.34169 67.2117 6.28692 68.4908 4.49628L68.4909 4.49607C69.7716 2.68711 70.6798 1.54082 71.218 1.05014L71.2181 1.05019L71.2201 1.04815C71.3202 0.948095 71.3824 0.844898 71.3824 0.739958H71.3825L71.3823 0.736059C71.3728 0.584877 71.2951 0.47027 71.1573 0.39681C71.024 0.325694 70.8358 0.293457 70.5999 0.293457C70.1239 0.293457 69.5946 0.432886 69.0132 0.707442C68.4292 0.983206 67.995 1.34219 67.7152 1.78635C65.9549 4.50681 64.2426 7.25128 62.5783 10.0198Z" fill="#007BFF" stroke="#007BFF" stroke-width="0.125"/>
<path d="M83.9379 18.7861L83.9379 18.7861C83.2265 19.4328 82.2989 19.9645 81.1573 20.3825L81.1566 20.3828C80.0147 20.7849 78.9037 20.9864 77.8238 20.9864C76.7521 20.9864 75.9779 20.9306 75.506 20.8168M83.9379 18.7861L75.5198 20.7559M83.9379 18.7861C84.6625 18.1259 85.2194 17.4162 85.6073 16.6567C86.0101 15.8993 86.2143 15.2092 86.2143 14.5879C86.2143 13.9566 86.0931 13.4328 85.8459 13.0205C85.6187 12.6151 85.3565 12.3181 85.0571 12.1349C84.7857 11.9593 84.53 11.7995 84.2901 11.6555C84.181 11.5775 84.102 11.5092 84.0509 11.4507C83.9979 11.3902 83.9823 11.3487 83.9823 11.3239C83.9823 11.2355 84.0257 11.1474 84.1285 11.0593C84.1743 11.0201 84.2794 10.9692 84.456 10.909C84.6294 10.8499 84.8633 10.7844 85.1584 10.7126C86.7225 10.3417 87.9984 9.57499 88.9835 8.41226L88.984 8.41162C89.5198 7.76223 89.7903 7.06854 89.7903 6.33185C89.7903 5.87831 89.7256 5.48611 89.594 5.15694C89.3767 4.60534 88.8374 4.17228 87.9983 3.84952L87.9978 3.84933C87.6691 3.72609 87.1377 3.63563 86.409 3.57556C85.6786 3.51537 84.7447 3.48535 83.6078 3.48535C82.367 3.48535 81.4326 3.53932 80.8071 3.64828C80.495 3.70265 80.2549 3.77148 80.0914 3.85696C79.9294 3.94159 79.8253 4.05239 79.8253 4.19585V4.38785C79.8253 5.01556 79.6289 5.76635 79.2309 6.64199L79.2305 6.64285C78.8482 7.51913 77.9779 9.13219 76.6177 11.4846L76.6176 11.4848C75.2736 13.8367 74.0417 15.9726 72.9218 17.8924L72.9216 17.8927C72.3695 18.8529 71.9551 19.5957 71.6785 20.1207C71.5403 20.3831 71.4361 20.5919 71.3664 20.7467C71.3315 20.8239 71.3048 20.8887 71.2867 20.9403C71.2695 20.9896 71.2573 21.0342 71.2573 21.0679C71.2573 21.1482 71.2862 21.2194 71.3417 21.2786C71.3959 21.3364 71.4734 21.3808 71.5689 21.4147C71.7592 21.4824 72.0378 21.5144 72.3998 21.5144C73.1325 21.5144 73.7621 21.2785 74.2852 20.8064M83.9379 18.7861L74.2478 20.7559M75.506 20.8168C75.5057 20.8167 75.5054 20.8167 75.5052 20.8166L75.5198 20.7559M75.506 20.8168C75.5062 20.8169 75.5065 20.8169 75.5067 20.817L75.5198 20.7559M75.506 20.8168C75.2826 20.7689 75.1056 20.7331 74.9746 20.7093C74.8412 20.6851 74.7611 20.6744 74.7278 20.6744C74.5826 20.6744 74.4353 20.7173 74.2852 20.8064M75.5198 20.7559C75.0718 20.6599 74.8078 20.6119 74.7278 20.6119C74.5678 20.6119 74.4078 20.6599 74.2478 20.7559M74.2852 20.8064C74.2867 20.805 74.2883 20.8036 74.2898 20.8022L74.2478 20.7559M74.2852 20.8064C74.2834 20.8074 74.2817 20.8084 74.28 20.8094L74.2478 20.7559M82.8313 15.6892L82.8307 15.6905C82.5774 16.2605 82.2206 16.8237 81.7597 17.38C81.302 17.9324 80.6931 18.4075 79.9312 18.8043C79.1863 19.1846 78.4681 19.3734 77.7758 19.3734C77.0897 19.3734 76.6262 19.2849 76.3705 19.1198C76.1264 18.9518 76.0143 18.7611 76.0143 18.5479C76.0143 18.412 76.07 18.1858 76.189 17.863C76.307 17.5425 76.4846 17.134 76.7222 16.6368C77.1973 15.6426 77.9106 14.298 78.8623 12.6024L78.8624 12.6023C80.7663 9.19446 82.22 6.87076 83.2243 5.6273C83.5748 5.20074 84.1995 4.97835 85.1198 4.97835C85.6737 4.97835 86.0777 5.08351 86.3421 5.28368C86.6032 5.48137 86.7373 5.77888 86.7373 6.18785C86.7373 7.13927 86.239 8.04331 85.2235 8.90008C84.2104 9.75492 83.0645 10.1814 81.7838 10.1814C81.4346 10.1814 81.1299 10.3921 80.8678 10.7852L80.8675 10.7857C80.6229 11.1608 80.4973 11.5245 80.4973 11.8759C80.4973 11.9651 80.5309 12.0398 80.6023 12.0892C80.6695 12.1358 80.7625 12.1544 80.8718 12.1544H81.1118C81.4397 12.1544 81.7682 12.2168 82.0976 12.3423L82.0988 12.3427C82.3159 12.4203 82.5007 12.5283 82.654 12.6663C82.8043 12.8015 82.9357 13.0079 83.0456 13.2905L83.0454 13.2906L83.0473 13.2945C83.1703 13.5559 83.2333 13.8822 83.2333 14.2759C83.2333 14.6465 83.1016 15.1167 82.8313 15.6892Z" fill="#007BFF" stroke="#007BFF" stroke-width="0.125"/>
<path d="M92.5569 15.6243C92.5571 15.6245 92.5573 15.6248 92.5575 15.625L92.512 15.6678C92.784 15.9398 93.104 16.0758 93.472 16.0758C94.304 16.0758 94.984 15.7318 95.512 15.0438C96.056 14.3398 96.328 13.6918 96.328 13.0998C96.328 12.9718 96.256 12.9078 96.112 12.9078C95.904 12.9078 95.664 12.9558 95.392 13.0518M92.5569 15.6243C92.8176 15.8847 93.1217 16.0133 93.472 16.0133C94.2837 16.0133 94.9457 15.6791 95.4624 15.0058L95.4626 15.0056C96.0022 14.3073 96.2655 13.6726 96.2655 13.0998C96.2655 13.0475 96.2511 13.0191 96.2325 13.0026C96.2125 12.9847 96.1761 12.9703 96.112 12.9703C95.9134 12.9703 95.6809 13.0162 95.4134 13.1106M92.5569 15.6243C92.3126 15.3644 92.1905 15.0521 92.1905 14.6838C92.1905 13.5645 92.648 12.2884 93.5726 10.8537L93.5727 10.8534C94.4972 9.40291 95.4569 8.69834 96.448 8.69834C96.7273 8.69834 96.9251 8.76434 97.0531 8.88528C97.1805 9.00559 97.2495 9.19042 97.2495 9.45184C97.2495 9.8935 97.1545 10.193 96.9798 10.3676C96.8116 10.5358 96.5638 10.6918 96.2326 10.8339C95.8919 10.9638 95.6272 11.1279 95.4429 11.3286C94.984 11.7879 94.7535 12.3394 94.7535 12.9798C94.7535 13.0568 94.766 13.1255 94.8 13.1765C94.837 13.232 94.8938 13.2583 94.96 13.2583C94.9777 13.2583 95.0006 13.2528 95.0215 13.2471C95.0451 13.2407 95.0753 13.2313 95.1118 13.2191C95.1848 13.1948 95.2854 13.1586 95.4134 13.1106M92.5569 15.6243L95.392 13.0518M95.4134 13.1106C95.4136 13.1105 95.4138 13.1104 95.414 13.1104L95.392 13.0518M95.4134 13.1106C95.4132 13.1106 95.413 13.1107 95.4128 13.1108L95.392 13.0518M90.9491 17.2842L90.9493 17.2843C91.5652 17.5761 92.1983 17.7223 92.848 17.7223C93.4997 17.7223 94.2128 17.5351 94.9863 17.1645C95.7742 16.8107 96.4043 16.4154 96.8746 15.9776L96.8747 15.9775C97.3576 15.5268 97.8081 15.02 98.2262 14.4571L98.2267 14.4564C98.6423 13.881 98.9093 13.477 99.0239 13.2478L99.0239 13.2478L99.0247 13.2463C99.1309 13.0186 99.2153 12.8418 99.2781 12.7156C99.7435 12.5028 100.137 12.1788 100.458 11.7451L100.459 11.7442C100.782 11.2924 100.951 10.8953 100.951 10.5558C100.951 10.3857 100.935 10.2504 100.898 10.1556C100.88 10.1077 100.855 10.0662 100.821 10.0363C100.786 10.0053 100.743 9.98934 100.696 9.98934C100.678 9.98934 100.658 9.9944 100.641 9.99969C100.623 10.0055 100.601 10.0138 100.576 10.0242C100.526 10.045 100.461 10.0757 100.38 10.1159C100.233 10.1896 100.012 10.2293 99.712 10.2293C99.5646 10.2293 99.4647 10.2057 99.4034 10.167C99.347 10.1314 99.3185 10.0802 99.3185 10.0038C99.3185 9.98388 99.3269 9.94491 99.3505 9.88179C99.3735 9.82064 99.4084 9.7428 99.4559 9.64779C99.5579 9.44391 99.6065 9.17718 99.6065 8.85184C99.6065 8.48809 99.3813 8.13608 98.9593 7.79522C98.5304 7.44879 97.9958 7.27734 97.36 7.27734C96.0028 7.27734 94.711 7.6815 93.4857 8.48763L93.4854 8.48784C92.2785 9.29243 91.3357 10.259 90.6584 11.3877L90.6581 11.3883C89.998 12.5153 89.6655 13.5981 89.6655 14.6358C89.6655 15.2987 89.7787 15.8609 90.0081 16.3198L90.0081 16.3198L90.0089 16.3214C90.2536 16.7782 90.5664 17.1012 90.9491 17.2842ZM98.176 14.4198C97.76 14.9798 97.312 15.4838 96.832 15.9318L99.232 12.6678C99.168 12.7958 99.08 12.9798 98.968 13.2198C98.856 13.4438 98.592 13.8438 98.176 14.4198Z" fill="#007BFF" stroke="#007BFF" stroke-width="0.125"/>
<path d="M102.109 17.2842L102.109 17.2843C102.725 17.5761 103.358 17.7223 104.008 17.7223C104.66 17.7223 105.373 17.5351 106.146 17.1645C106.934 16.8107 107.564 16.4154 108.035 15.9776L108.035 15.9775C108.518 15.5268 108.968 15.02 109.386 14.4571L109.387 14.4564C109.802 13.881 110.069 13.477 110.184 13.2478L110.184 13.2478L110.185 13.2463C110.291 13.0186 110.375 12.8418 110.438 12.7156C110.904 12.5028 111.297 12.1788 111.618 11.7451L111.619 11.7442C111.942 11.2924 112.111 10.8953 112.111 10.5558C112.111 10.3857 112.095 10.2504 112.059 10.1556C112.04 10.1077 112.016 10.0662 111.981 10.0363C111.946 10.0053 111.903 9.98934 111.856 9.98934C111.838 9.98934 111.818 9.9944 111.802 9.99969C111.783 10.0055 111.761 10.0138 111.736 10.0242C111.686 10.045 111.621 10.0757 111.54 10.1159C111.393 10.1896 111.172 10.2293 110.872 10.2293C110.725 10.2293 110.625 10.2057 110.564 10.167C110.507 10.1314 110.479 10.0802 110.479 10.0038C110.479 9.98388 110.487 9.94491 110.511 9.88179C110.534 9.82064 110.569 9.7428 110.616 9.64779C110.718 9.44391 110.767 9.17718 110.767 8.85184C110.767 8.48809 110.541 8.13608 110.119 7.79522C109.691 7.44879 109.156 7.27734 108.52 7.27734C107.163 7.27734 105.871 7.6815 104.646 8.48763L104.646 8.48784C103.439 9.29243 102.496 10.259 101.819 11.3877L101.818 11.3883C101.158 12.5153 100.826 13.5981 100.826 14.6358C100.826 15.2987 100.939 15.8609 101.168 16.3198L101.168 16.3198L101.169 16.3214C101.414 16.7782 101.727 17.1012 102.109 17.2842ZM109.336 14.4198C108.92 14.9798 108.472 15.4838 107.992 15.9318L110.392 12.6678C110.328 12.7958 110.24 12.9798 110.128 13.2198C110.016 13.4438 109.752 13.8438 109.336 14.4198ZM104.733 10.8537L104.733 10.8534C105.657 9.40291 106.617 8.69834 107.608 8.69834C107.887 8.69834 108.085 8.76434 108.213 8.88528C108.341 9.00559 108.41 9.19042 108.41 9.45184C108.41 9.8935 108.315 10.193 108.14 10.3676C107.972 10.5358 107.724 10.6918 107.393 10.8339C107.052 10.9638 106.787 11.1279 106.603 11.3286C106.144 11.7879 105.914 12.3394 105.914 12.9798C105.914 13.0568 105.926 13.1255 105.96 13.1765C105.997 13.232 106.054 13.2583 106.12 13.2583C106.138 13.2583 106.161 13.2528 106.182 13.2471C106.205 13.2407 106.235 13.2313 106.272 13.2191C106.345 13.1948 106.446 13.1586 106.574 13.1106C106.841 13.0162 107.074 12.9703 107.272 12.9703C107.336 12.9703 107.373 12.9847 107.393 13.0026C107.411 13.0191 107.426 13.0475 107.426 13.0998C107.426 13.6726 107.162 14.3073 106.623 15.0056L106.623 15.0058C106.106 15.6791 105.444 16.0133 104.632 16.0133C104.282 16.0133 103.978 15.8847 103.717 15.6243C103.473 15.3644 103.351 15.0521 103.351 14.6838C103.351 13.5645 103.808 12.2884 104.733 10.8537Z" fill="#007BFF" stroke="#007BFF" stroke-width="0.125"/>
<path d="M111.985 17.756H111.984L111.986 17.767C112.031 18.0164 112.197 18.1991 112.467 18.3173C112.734 18.4343 113.108 18.4905 113.584 18.4905C115.26 18.4905 116.815 18.0392 118.249 17.1371C119.681 16.2522 120.414 15.2517 120.414 14.132C120.414 13.7334 120.281 13.353 120.019 12.992C119.776 12.6353 119.499 12.3422 119.189 12.1137L119.189 12.1137L119.188 12.1128C118.392 11.5555 118.014 11.0198 118.014 10.508C118.014 10.2382 118.078 10.004 118.203 9.80306C118.328 9.60191 118.517 9.43078 118.774 9.29089L118.774 9.29058C119.311 8.99047 119.821 8.84252 120.304 8.84252C120.425 8.84252 120.504 8.86739 120.552 8.90653C120.598 8.94365 120.625 9.00148 120.625 9.09202C120.625 9.09763 120.624 9.11161 120.619 9.13722C120.614 9.16166 120.607 9.19344 120.597 9.23286C120.578 9.31155 120.548 9.41845 120.508 9.55388C120.426 9.81503 120.385 10.0692 120.385 10.316C120.385 10.5598 120.498 10.8134 120.711 11.0754L120.711 11.0755L120.713 11.077C120.926 11.3234 121.15 11.4585 121.384 11.4585C121.62 11.4585 121.795 11.3813 121.873 11.2054L121.873 11.2054L121.874 11.203C122.175 10.4415 122.652 9.62232 123.306 8.74538C123.963 7.86417 124.415 7.31789 124.665 7.09906L124.674 7.09097L124.68 7.07997C124.701 7.03685 124.71 6.98657 124.71 6.93202C124.71 6.85159 124.675 6.78276 124.613 6.72766C124.552 6.67416 124.466 6.63334 124.359 6.60206C124.147 6.53947 123.833 6.50952 123.424 6.50952C123.066 6.50952 122.754 6.56631 122.488 6.68209C122.229 6.77953 122.04 6.89666 121.934 7.03852C121.838 7.16685 121.749 7.28724 121.669 7.39969L121.669 7.39968L121.668 7.40135C121.612 7.48519 121.559 7.5154 121.509 7.51741C121.42 7.50091 121.248 7.49352 121 7.49352C119.566 7.49352 118.283 7.82389 117.153 8.48592C116.023 9.13132 115.441 9.90816 115.441 10.82C115.441 11.442 115.845 12.0264 116.62 12.575L116.62 12.5755C117.382 13.0992 117.745 13.6348 117.745 14.18C117.745 14.9271 117.134 15.6631 115.857 16.3815L115.857 16.3817C114.6 17.0979 113.418 17.4535 112.312 17.4535V17.4525L112.301 17.4545C112.207 17.4716 112.128 17.5029 112.072 17.5538C112.014 17.6066 111.985 17.6759 111.985 17.756Z" fill="#007BFF" stroke="#007BFF" stroke-width="0.125"/>
<path d="M139.216 5.80142V5.80137L139.213 5.80148L138.039 5.84942C137.495 5.84941 137.13 5.84138 136.941 5.82564L136.941 5.82542H136.936C136.699 5.82542 136.532 5.79355 136.425 5.73678C136.373 5.70889 136.337 5.67582 136.314 5.6388C136.291 5.60199 136.278 5.55778 136.278 5.50392C136.278 5.44762 136.298 5.36429 136.342 5.25053C136.385 5.13802 136.451 5.00065 136.541 4.83799C136.719 4.51273 136.988 4.09075 137.347 3.5715C137.708 3.05121 137.978 2.64414 138.159 2.35072C138.25 2.20412 138.318 2.08491 138.364 1.99363C138.387 1.94803 138.405 1.90836 138.418 1.87509C138.429 1.84348 138.438 1.81162 138.438 1.78392C138.438 1.65966 138.386 1.56088 138.283 1.49678C138.184 1.43574 138.044 1.40942 137.872 1.40942C136.885 1.40942 136.174 1.68461 135.758 2.2509L135.757 2.25116C135.119 3.12839 134.482 3.84467 133.847 4.40088L133.846 4.40141C133.224 4.96024 132.718 5.31412 132.329 5.46989L132.329 5.46989L132.328 5.47023L131.176 5.95023L131.176 5.95022L131.175 5.95061C130.801 6.11309 130.512 6.30997 130.312 6.54325L130.312 6.54355C130.131 6.75818 130.033 6.97201 130.033 7.18392C130.033 7.2909 130.063 7.38225 130.132 7.44585C130.2 7.50858 130.295 7.53443 130.408 7.53443H131.2C131.68 7.53443 132.007 7.56674 132.188 7.62722L132.188 7.62739L132.193 7.62856C132.276 7.64937 132.334 7.68939 132.372 7.74659C132.411 7.80506 132.433 7.88765 132.433 7.99992C132.433 8.01629 132.427 8.05003 132.406 8.10627C132.387 8.16054 132.357 8.22997 132.317 8.31503C132.235 8.48502 132.113 8.71351 131.95 9.001C131.622 9.57574 131.131 10.3828 130.475 11.4224C129.163 13.4867 127.851 15.591 126.539 17.7353L126.538 17.7356C125.89 18.8081 125.403 19.6677 125.078 20.3138C124.916 20.6368 124.793 20.9075 124.711 21.1254C124.63 21.3413 124.585 21.5118 124.585 21.6319C124.585 22.0866 124.813 22.5258 125.253 22.9489C125.47 23.1586 125.666 23.3179 125.839 23.4251C126.011 23.5316 126.167 23.5904 126.304 23.5904C126.438 23.5904 126.551 23.5697 126.639 23.5232C126.729 23.4757 126.791 23.4025 126.82 23.3059L126.82 23.3059L126.82 23.3036C127.282 21.5202 128.455 18.9902 130.342 15.7111C132.246 12.4311 133.621 10.2016 134.467 9.02032L134.467 9.02034L134.468 9.01859C134.533 8.92173 134.645 8.745 134.805 8.48905C134.966 8.23153 135.074 8.07812 135.132 8.02012C135.191 7.96103 135.314 7.86809 135.507 7.73993C135.69 7.61795 135.904 7.54092 136.152 7.50997C136.42 7.47843 136.833 7.46242 137.392 7.46242C137.979 7.46242 138.474 7.30721 138.871 6.99311C139.019 6.87774 139.143 6.74554 139.243 6.5965C139.355 6.4514 139.432 6.32534 139.467 6.21969C139.5 6.12057 139.518 6.03338 139.518 5.95992C139.518 5.92969 139.509 5.90144 139.489 5.87791C139.47 5.85549 139.445 5.84036 139.419 5.8299C139.368 5.8094 139.298 5.80142 139.216 5.80142Z" fill="#007BFF" stroke="#007BFF" stroke-width="0.125"/>
</svg>
